<svg xmlns="http://www.w3.org/2000/svg" width="395.946" height="395.946" viewBox="0 0 395.946 395.946">
  <g id="ic_info_rev" transform="translate(0 0.001)">
    <path id="Path_84" data-name="Path 84" d="M389.121,197.973c0,105.566-85.582,191.148-191.148,191.148S6.828,303.539,6.828,197.973,92.406,6.828,197.973,6.828,389.121,92.406,389.121,197.973Zm0,0" fill="#019fff"/>
    <path id="Path_85" data-name="Path 85" d="M197.973,395.945C88.809,395.945,0,307.133,0,197.972S88.809,0,197.973,0,395.946,88.811,395.946,197.972,307.137,395.945,197.973,395.945Zm0-382.293c-101.633,0-184.32,82.688-184.32,184.32s82.688,184.32,184.32,184.32,184.32-82.687,184.32-184.32-82.687-184.32-184.32-184.32Zm0,0" fill="#fff"/>
    <path id="Path_86" data-name="Path 86" d="M197.973,368.641c-102.133,0-185.543-80.1-190.867-180.906q-.27,5.086-.277,10.238c0,105.566,85.578,191.148,191.145,191.148s191.148-85.582,191.148-191.148c0-3.437-.1-6.848-.281-10.238-5.32,100.8-88.734,180.906-190.867,180.906Zm0,0" fill="#fff"/>
    <path id="Path_87" data-name="Path 87" d="M197.973,395.945C88.809,395.945,0,307.133,0,197.972c0-3.559.105-7.086.289-10.6a6.826,6.826,0,0,1,13.633,0c5.164,97.816,86.008,174.438,184.051,174.438S376.86,285.191,382.024,187.374a6.826,6.826,0,0,1,13.633,0q.281,5.268.289,10.6c0,109.16-88.809,197.973-197.973,197.973Zm-141.2-79.617a184.1,184.1,0,0,0,282.4,0,198.137,198.137,0,0,1-282.4,0Zm0,0" fill="#fff"/>
    <path id="Path_88" data-name="Path 88" d="M40.961,204.8a6.828,6.828,0,0,1-6.828-6.828c0-90.34,73.5-163.84,163.84-163.84a6.826,6.826,0,1,1,0,13.652c-82.813,0-150.188,67.375-150.188,150.188a6.824,6.824,0,0,1-6.824,6.828Zm0,0" fill="#fff"/>
    <path id="Path_89" data-name="Path 89" d="M189.9,273.953a10.368,10.368,0,0,1-2.957-7.707l1.988-102.492a10.813,10.813,0,0,1,3.254-7.707,10.189,10.189,0,0,1,7.707-3.082,10.633,10.633,0,0,1,10.781,11.207l-1.988,102.492a10.192,10.192,0,0,1-3.375,7.586,10.758,10.758,0,0,1-7.828,2.953A10.38,10.38,0,0,1,189.9,273.953Zm1.445-148.4a11.749,11.749,0,0,1-3.418-8.68l.016-.953a12.246,12.246,0,0,1,12.422-11.941l1.434.027a12.239,12.239,0,0,1,11.945,12.414l-.016.953A12.239,12.239,0,0,1,201.3,129.339l-1.434-.027A11.743,11.743,0,0,1,191.343,125.558Zm0,0" fill="#fff"/>
    <path id="Path_90" data-name="Path 90" d="M307.2,395.945H211.625a6.826,6.826,0,0,1,0-13.652H307.2a6.826,6.826,0,1,1,0,13.652Zm0,0" fill="#fff"/>
  </g>
</svg>
