<svg xmlns="http://www.w3.org/2000/svg" width="506.631" height="512" viewBox="0 0 506.631 512">
  <g id="ic_money_rev" transform="translate(0 0)">
    <path id="Path_12" data-name="Path 12" d="M100.684,307.2,211.618,460.8l110.934-128L307.021,295a410.034,410.034,0,0,1-69.8,16.215H203.087a404.49,404.49,0,0,1-68.27-15.711Zm0,0" fill="#fff"/>
    <path id="Path_13" data-name="Path 13" d="M359.332,306.773,344.824,487.765c-8.789,2.391-17.836,4.438-26.711,6.059a585.836,585.836,0,0,1-97.961,9.641s-208.469,0-208.469-86.867c0-28.758,5.8-60.586,26.453-82.52,22.27-23.723,63.4-37.461,95.144-39.082,0,0,0,39.68,57.773,96q12.539,12.287,29.1,25.6,16.512-13.312,29.1-25.6c4.523-4.437,8.7-8.7,12.543-12.883a193.135,193.135,0,0,0,39.426-59.906,71.1,71.1,0,0,0,5.8-23.211,163.345,163.345,0,0,1,34.051,5.719,157.459,157.459,0,0,1,18.262,6.059Zm0,0" fill="#a4dcff"/>
    <path id="Path_14" data-name="Path 14" d="M359.332,306.773,344.824,487.765c-8.789,2.391-17.836,4.438-26.711,6.059a97.347,97.347,0,0,1-25.684-17.152,102.172,102.172,0,0,1-33.281-75.605,96.613,96.613,0,0,1,2.645-22.953,193.135,193.135,0,0,0,39.426-59.906,102.991,102.991,0,0,1,39.852-17.492,157.459,157.459,0,0,1,18.262,6.059Zm0,0" fill="#a4dcff"/>
    <path id="Path_15" data-name="Path 15" d="M313.59,117.762a22.086,22.086,0,0,1,19.715-6.145c10.066,3.328,5.035,33.621,5.035,33.621a49.064,49.064,0,0,1-31.574,32H133.539a49.323,49.323,0,0,1-31.66-32s-4.949-30.293,5.207-33.621a21.893,21.893,0,0,1,19.625,6.145Zm0,0" fill="#fff"/>
    <path id="Path_16" data-name="Path 16" d="M272.375,250.965A49.812,49.812,0,0,0,307.02,295a410.034,410.034,0,0,1-69.8,16.215H203.086A410.087,410.087,0,0,1,133.281,295a49.807,49.807,0,0,0,34.645-44.031Zm0,0" fill="#a4dcff"/>
    <path id="Path_17" data-name="Path 17" d="M249.25,391q-12.545,12.287-29.1,25.6-16.512-13.312-29.1-25.6l20.563-49.664h17.066Zm0,0" fill="#fff"/>
    <path id="Path_18" data-name="Path 18" d="M306.68,171.094c0,22.7,6.656,42.238-19.969,65.023S260.086,281.6,233.465,281.6H206.84a6.689,6.689,0,0,1-1.281-.086c-25.344-.684-25.77-23.039-51.969-45.4-26.621-22.785-19.965-42.324-19.965-65.023s-9.984-29.27-6.656-94.293c2.73-52.652,57.684-64.77,78.59-67.5,4.949-.684,7.938-.766,7.938-.766h13.313s83.2,3.242,86.527,68.266-6.656,71.508-6.656,94.293Zm0,0" fill="#a4dcff"/>
    <path id="Path_19" data-name="Path 19" d="M277.41,171.094c0,22.7,6.656,42.238-19.969,65.023-26.2,22.273-26.625,44.715-51.883,45.4-25.344-.684-25.77-23.039-51.969-45.4-26.621-22.785-19.965-42.324-19.965-65.023s-9.984-29.27-6.656-94.293c2.73-52.652,57.684-64.77,78.59-67.5,20.906,2.73,75.777,14.934,78.508,67.5,3.328,65.023-6.656,71.508-6.656,94.293Zm0,0" fill="#d4e1f4"/>
    <path id="Path_20" data-name="Path 20" d="M207.352,307.2h25.6a4.266,4.266,0,0,1,4.266,4.266V332.8a17.066,17.066,0,0,1-34.133,0V311.465a4.266,4.266,0,0,1,4.266-4.266Zm0,0" fill="#fff"/>
    <path id="Path_21" data-name="Path 21" d="M495.863,379.734a102.516,102.516,0,1,0,2.219,21.332,102.519,102.519,0,0,0-2.219-21.332Zm0,0" fill="#a4dcff"/>
    <path id="Path_22" data-name="Path 22" d="M470.535,379.734c-8.582-46.336-44.566-81.066-87.652-81.066-49.492,0-89.6,45.824-89.6,102.4a109.218,109.218,0,0,0,29.125,75.605,83.362,83.362,0,0,0,60.477,26.793c49.492,0,89.6-45.82,89.6-102.4a117.319,117.319,0,0,0-1.945-21.332Zm0,0" fill="#fff"/>
    <g id="Group_7" data-name="Group 7">
      <path id="Path_23" data-name="Path 23" d="M161.4,295.809l.855.266Zm0,0" fill="#fff"/>
      <path id="Path_24" data-name="Path 24" d="M166,297.242l1.707.52Zm0,0" fill="#fff"/>
      <path id="Path_25" data-name="Path 25" d="M193.73,304.77l3.594.852Zm0,0" fill="#fff"/>
      <path id="Path_26" data-name="Path 26" d="M187.613,303.258c1.391.359,2.809.707,4.266,1.066C190.422,303.965,189,303.617,187.613,303.258Zm0,0" fill="#fff"/>
      <path id="Path_27" data-name="Path 27" d="M199.508,306.1l3.414.754Zm0,0" fill="#fff"/>
      <path id="Path_28" data-name="Path 28" d="M181.742,301.738q2.4.639,4.949,1.289Q184.142,302.377,181.742,301.738Zm0,0" fill="#fff"/>
      <path id="Path_29" data-name="Path 29" d="M169.242,298.215l2.105.613Zm0,0" fill="#fff"/>
      <path id="Path_30" data-name="Path 30" d="M180.582,301.422l-3.414-.937Zm0,0" fill="#fff"/>
      <path id="Path_31" data-name="Path 31" d="M11.684,416.6c0,86.867,208.469,86.867,208.469,86.867s4.754,0,12.8-.3C187.7,501.5,37.281,490.4,37.281,416.6c0-28.758,5.8-60.586,26.453-82.52,18.16-19.344,48.8-31.9,76.734-36.82h0A153.508,153.508,0,0,1,158.883,295a49.817,49.817,0,0,0,34.645-44.016,110.182,110.182,0,0,0-14.336-14.863c-24.2-20.711-20.914-38.75-20.113-58.879A49.288,49.288,0,0,1,127.5,145.262s-4.949-30.293,5.207-33.621a21.9,21.9,0,0,1,19.625,6.145,388.722,388.722,0,0,1,.23-40.984c2.73-52.652,57.688-64.77,78.594-67.5.672-.094,1.219-.152,1.816-.223-3.84-.449-6.168-.543-6.168-.543H213.5s-2.988.082-7.937.766c-20.906,2.73-75.859,14.848-78.59,67.5a387.229,387.229,0,0,0-.238,40.961,21.9,21.9,0,0,0-19.629-6.145c-10.156,3.328-5.2,33.621-5.2,33.621a49.285,49.285,0,0,0,31.57,31.973c-.8,20.156-4.086,38.2,20.113,58.879a109.974,109.974,0,0,1,14.336,14.867,49.817,49.817,0,0,1-34.645,44.016l1.535.5-1.484.5a9.073,9.073,0,0,0-.051-1.008c-31.742,1.621-72.875,15.359-95.148,39.082C17.485,356.012,11.684,387.84,11.684,416.6ZM136.618,296.106l-.852-.262Zm2.5.777-1.4-.434Zm0,0" fill="#fff"/>
      <path id="Path_32" data-name="Path 32" d="M172.961,299.309l2.563.723Zm0,0" fill="#fff"/>
      <path id="Path_33" data-name="Path 33" d="M163.32,296.414l1.4.434Zm0,0" fill="#fff"/>
      <path id="Path_34" data-name="Path 34" d="M211.1,308.488l3.609.648Zm0,0" fill="#fff"/>
      <path id="Path_35" data-name="Path 35" d="M388.652,503.133c2.336.156,4.656.332,7.031.332,2.234,0,4.418-.2,6.621-.332a81.215,81.215,0,0,1-38.9-13.652c-6.238,1.543-12.52,2.961-18.773,4.121a80.1,80.1,0,0,0,38.254,9.863c1.945,0,3.855-.2,5.77-.332Zm0,0" fill="#fff"/>
      <path id="Path_36" data-name="Path 36" d="M160.418,295.5l-1.535-.5s0,.41.051,1.008Zm0,0" fill="#fff"/>
      <path id="Path_37" data-name="Path 37" d="M222.848,310.453c1.953.281,3.91.535,5.836.758C226.723,310.988,224.8,310.734,222.848,310.453Zm0,0" fill="#fff"/>
      <path id="Path_38" data-name="Path 38" d="M217.012,309.539c1.32.223,2.645.426,3.957.621C219.657,309.965,218.332,309.762,217.012,309.539Zm0,0" fill="#fff"/>
      <path id="Path_39" data-name="Path 39" d="M365.977,300.543l.691.172c4.07,1.074,8.117,2.4,12.137,3.813a79.805,79.805,0,0,1,24.141-5.547c-2.406-.16-4.812-.312-7.262-.312-2.16,0-4.27.188-6.383.324-2.152-.172-4.258-.324-6.418-.324a79.121,79.121,0,0,0-16.906,1.875Zm0,0" fill="#fff"/>
      <path id="Path_40" data-name="Path 40" d="M208.8,308.055l-3.539-.711Zm0,0" fill="#fff"/>
      <path id="Path_41" data-name="Path 41" d="M17.066,416.605a49,49,0,0,0,23.1,39.254A162.775,162.775,0,0,0,87.809,477.55a507.3,507.3,0,0,0,129.176,17.383V512A523.446,523.446,0,0,1,82.926,493.918a179.009,179.009,0,0,1-52.777-24.234A80.488,80.488,0,0,1,8.816,447.367,59.1,59.1,0,0,1,0,416.605Zm0,0" fill="#fff"/>
    </g>
    <path id="Path_42" data-name="Path 42" d="M395.684,290.133a110.325,110.325,0,0,0-39.793,7.5,177.76,177.76,0,0,0-50.1-11.016,39.88,39.88,0,0,1-27.426-33.281,99.082,99.082,0,0,1,10.727-10.777c24.992-21.332,24.277-41.812,23.355-59.93a56.171,56.171,0,0,0,31.145-36.008c1.871-11.273,4.574-38.043-10.727-43.113a23.048,23.048,0,0,0-13.5-.262c0-7.758-.145-16.605-.664-26.9C315.75,18.774,255.446,1.238,223.641,0H209.989c-31.473,1.23-91.766,18.773-94.719,76.355-.531,10.293-.719,19.133-.668,26.891a22.718,22.718,0,0,0-13.344.254c-15.437,5.063-12.8,31.832-10.891,43.52a56.475,56.475,0,0,0,31.148,35.621c-.922,18.105-1.629,38.57,23.355,59.93A97.1,97.1,0,0,1,155.6,253.356a39.89,39.89,0,0,1-27.453,33.277c-32.1,1.938-74.828,15.363-99.43,41.578C9.668,348.512,0,378.258,0,416.606a59.487,59.487,0,0,0,13,36.789,8.138,8.138,0,0,0,12.41,1.117,9.231,9.231,0,0,0,1.066-11.633,42.12,42.12,0,0,1-9.387-26.3c0-33.871,8.105-59.684,24.1-76.715,19.625-20.934,54.457-32.734,81.594-35.73,3.148,15.555,15,49.563,58.609,92.32.051.063.117.113.168.172a399.985,399.985,0,0,0,30.125,26.617,8.238,8.238,0,0,0,1.246.691c.273.145.512.313.793.434a8.364,8.364,0,0,0,3.285.742h.172a8.641,8.641,0,0,0,3.063-.684,7.689,7.689,0,0,0,.988-.555,8.338,8.338,0,0,0,1.145-.629c11.3-9.113,21.332-17.922,29.7-26.129,44.125-43.02,55.988-77.3,59.18-92.945a158.433,158.433,0,0,1,23.246,4.469,110.62,110.62,0,0,0-12.539,175.078,579.184,579.184,0,0,1-104.969,11.215A507.3,507.3,0,0,1,87.816,477.559c-2.664-.742-5.238-1.707-7.867-2.5A8.714,8.714,0,0,0,69.207,480.3a8.418,8.418,0,0,0,5.332,10.949c2.8.855,5.582,1.879,8.395,2.672A523.353,523.353,0,0,0,216.985,512a563.22,563.22,0,0,0,123.152-15.055,110.882,110.882,0,1,0,55.547-206.812ZM248.379,376.5l-12.988-25.977a25.473,25.473,0,0,0,7.2-17.723V318.668a401.759,401.759,0,0,0,50.184-11.348c-4.145,13.875-15.172,38.457-44.4,69.18Zm-31.352,29.012c-6.766-5.6-13-11.094-18.652-16.4l15.547-31.027a15.36,15.36,0,0,0,6.2,0l15.539,31.086c-5.613,5.238-11.836,10.707-18.637,16.34Zm8.535-72.711a8.533,8.533,0,0,1-17.066,0V315.735h17.066ZM326.622,119.52a58.26,58.26,0,0,1,.223,23.891,37.394,37.394,0,0,1-14.207,19.176c.441-3.465,1.09-6.828,1.859-10.66a209.789,209.789,0,0,0,4.2-29.711,12.56,12.56,0,0,1,7.926-2.7ZM107.145,143.864a58.178,58.178,0,0,1,.246-24.344,12.4,12.4,0,0,1,7.895,2.66,211.042,211.042,0,0,0,4.191,29.715c.766,3.82,1.414,7.211,1.867,10.676a37.979,37.979,0,0,1-14.2-18.707ZM138.6,182.829c.086-1.641.1-3.34.172-5a8.608,8.608,0,0,0,0-1.27c.059-1.824.18-3.609.18-5.477a105.109,105.109,0,0,0-2.781-22.547,195.558,195.558,0,0,1-4.148-31.187v-.137a380.065,380.065,0,0,1,.273-39.973c2.926-56.379,75.3-60.047,78.035-60.168h12.98c3.07.129,75.469,3.8,78.344,60.176a381.186,381.186,0,0,1,.273,40.031,194.649,194.649,0,0,1-4.156,31.23,105.635,105.635,0,0,0-2.781,22.547c0,1.867.121,3.652.188,5.477a7.3,7.3,0,0,0,.043,1.273c.07,1.707.078,3.363.164,5,.9,17.766,1.551,30.6-17.367,46.773a117.6,117.6,0,0,0-15.453,16.188l-.207.246c-2.8,3.508-5.312,6.887-7.508,9.926-8.867,12.176-12.918,17.133-24.551,17.133H203.684c-11.633,0-15.687-4.957-24.508-17.168-2.2-3.031-4.7-6.41-7.5-9.906l-.219-.285a118.129,118.129,0,0,0-15.48-16.109c-18.926-16.172-18.27-29-17.375-46.77Zm29.723,87.148a40.427,40.427,0,0,0,35.363,20.156H230.3a40.423,40.423,0,0,0,35.355-20.156,55.66,55.66,0,0,0,15.887,22.715l-.477.137c-3,.813-6.238,1.707-9.633,2.512l-1.332.332c-3.414.852-7,1.707-10.668,2.484l-1.34.289c-3.82.852-7.68,1.586-11.637,2.27l-.855.16c-2.449.422-4.863.719-7.3,1.07a12.631,12.631,0,0,0-8.531-3.312h-25.6a12.639,12.639,0,0,0-8.531,3.313,368.312,368.312,0,0,1-43.273-9.242,55.615,55.615,0,0,0,15.949-22.727Zm-27.1,37.352a401.609,401.609,0,0,0,50.176,11.34V332.8a25.468,25.468,0,0,0,7.191,17.723l-12.977,25.949c-29.2-30.746-40.242-55.32-44.391-69.145Zm254.465,187.6a93.217,93.217,0,0,1-49.316-14.148,8.543,8.543,0,0,0-.922-.562,93.739,93.739,0,0,1,13.34-165.445,7.342,7.342,0,0,0,1.234-.5,93.868,93.868,0,1,1,35.664,180.653Zm0,0" fill="#019fff"/>
    <path id="Path_43" data-name="Path 43" d="M420.063,368.152a8.533,8.533,0,1,0,17.066,0A41.52,41.52,0,0,0,404.215,327.6v-3.336a8.533,8.533,0,0,0-17.066,0V327.6a41.429,41.429,0,0,0,0,81.066v48.043A24.353,24.353,0,0,1,371.3,433.953a8.533,8.533,0,0,0-17.066,0,41.52,41.52,0,0,0,32.914,40.578v3.336a8.533,8.533,0,0,0,17.066,0v-3.336a41.429,41.429,0,0,0,0-81.066V345.421a24.347,24.347,0,0,1,15.848,22.73Zm-48.762,0a24.361,24.361,0,0,1,15.848-22.758V390.91A24.364,24.364,0,0,1,371.3,368.152Zm48.762,65.828a24.357,24.357,0,0,1-15.848,22.758V411.222a24.361,24.361,0,0,1,15.848,22.758Zm0,0" fill="#019fff"/>
    <path id="Path_44" data-name="Path 44" d="M48.555,477.867A8.906,8.906,0,0,0,53.52,473.6a9.393,9.393,0,0,0,.523-6.5,9.558,9.558,0,0,0-3.883-4.891,8.643,8.643,0,0,0-6.2-.75l-1.5.531a6.752,6.752,0,0,0-1.449.852,5.575,5.575,0,0,0-1.254,1.008,13.442,13.442,0,0,0-1.086,1.32A8.673,8.673,0,0,0,37.5,471.7a8.217,8.217,0,0,0,1.613,3.047A8.953,8.953,0,0,0,48.555,477.867Zm0,0" fill="#019fff"/>
  </g>
</svg>
