<svg xmlns="http://www.w3.org/2000/svg" width="63.999" height="52.008" viewBox="0 0 63.999 52.008">
  <g id="ic_transportation" transform="translate(-0.001 -5.996)">
    <g id="Group_18" data-name="Group 18">
      <g id="Group_8" data-name="Group 8">
        <path id="Path_45" data-name="Path 45" d="M53,7l5,17.99v.02H55v-.02L50.83,10H13.17L9,24.99v.02H6v-.02L11,7Z" fill="#a4dcff"/>
      </g>
      <g id="Group_9" data-name="Group 9">
        <path id="Path_46" data-name="Path 46" d="M58,25.01,63,32H1l5-6.99H58Z" fill="#a4dcff"/>
      </g>
      <g id="Group_10" data-name="Group 10">
        <path id="Path_47" data-name="Path 47" d="M33.89,25.01H9v-.02L13.17,10H50.83L55,24.99v.02Z" fill="#d7e9ff"/>
      </g>
      <g id="Group_11" data-name="Group 11">
        <path id="Path_48" data-name="Path 48" d="M50,49H62v8H50Z" fill="#a4dcff"/>
      </g>
      <g id="Group_12" data-name="Group 12">
        <path id="Path_49" data-name="Path 49" d="M2,49H14v8H2Z" fill="#a4dcff"/>
      </g>
      <g id="Group_13" data-name="Group 13">
        <path id="Path_50" data-name="Path 50" d="M51,37h8a5,5,0,0,1-5,5H46A5,5,0,0,1,51,37Z" fill="#fff"/>
      </g>
      <g id="Group_14" data-name="Group 14">
        <path id="Path_51" data-name="Path 51" d="M22.81,40.01H41.19a5.986,5.986,0,0,1-5.19,3H28A5.985,5.985,0,0,1,22.81,40.01Z" fill="#fff"/>
      </g>
      <g id="Group_15" data-name="Group 15">
        <path id="Path_52" data-name="Path 52" d="M19,42H10a5,5,0,0,1-5-5h9A5,5,0,0,1,19,42Z" fill="#fff"/>
      </g>
      <g id="Group_16" data-name="Group 16">
        <path id="Path_53" data-name="Path 53" d="M41.19,40.01a5.884,5.884,0,0,0,.81-3H22a5.884,5.884,0,0,0,.81,3,5.986,5.986,0,0,0,5.19,3h8A5.985,5.985,0,0,0,41.19,40.01ZM63,32V49H1V32Zm-4,5H51a5,5,0,0,0-5,5h8A5,5,0,0,0,59,37ZM10,42h9a5,5,0,0,0-5-5H5A5,5,0,0,0,10,42Z" fill="#a4dcff"/>
      </g>
      <g id="Group_17" data-name="Group 17">
        <path id="Path_54" data-name="Path 54" d="M22,37.01H42a5.884,5.884,0,0,1-.81,3H22.81A5.884,5.884,0,0,1,22,37.01Z" fill="#fff"/>
      </g>
    </g>
    <g id="Group_52" data-name="Group 52">
      <g id="Group_40" data-name="Group 40">
        <g id="Group_19" data-name="Group 19">
          <path id="Path_55" data-name="Path 55" d="M63,50H1a1,1,0,0,1-1-1V32a1,1,0,0,1,1-1H63a1,1,0,0,1,1,1V49a1,1,0,0,1-1,1ZM2,48H62V33H2Z" fill="#019fff"/>
        </g>
        <g id="Group_20" data-name="Group 20">
          <path id="Path_56" data-name="Path 56" d="M14.005,58H2a1,1,0,0,1-1-1V49a1,1,0,0,1,1-1h12a1,1,0,0,1,1,1v8A1,1,0,0,1,14.005,58ZM3,56h10V50H3Z" fill="#019fff"/>
        </g>
        <g id="Group_21" data-name="Group 21">
          <path id="Path_57" data-name="Path 57" d="M62,58H50a1,1,0,0,1-1-1V49a1,1,0,0,1,1-1H62a1,1,0,0,1,1,1v8A1,1,0,0,1,62,58ZM51,56H61V50H51Z" fill="#019fff"/>
        </g>
        <g id="Group_22" data-name="Group 22">
          <path id="Path_58" data-name="Path 58" d="M1,33a1,1,0,0,1-.812-1.583l5-6.992A1,1,0,1,1,6.815,25.59l-5,6.992A1,1,0,0,1,1,33Z" fill="#019fff"/>
        </g>
        <g id="Group_23" data-name="Group 23">
          <path id="Path_59" data-name="Path 59" d="M63,33a1,1,0,0,1-.814-.418l-5-6.992a1,1,0,1,1,1.627-1.165l5,6.992A1,1,0,0,1,63,33Z" fill="#019fff"/>
        </g>
        <g id="Group_24" data-name="Group 24">
          <path id="Path_60" data-name="Path 60" d="M58,26.008H6a1,1,0,0,1,0-2H58a1,1,0,0,1,0,2Z" fill="#019fff"/>
        </g>
        <g id="Group_29" data-name="Group 29">
          <g id="Group_25" data-name="Group 25">
            <path id="Path_61" data-name="Path 61" d="M46,43a1,1,0,0,1-1-1,6.006,6.006,0,0,1,6-6,1,1,0,0,1,0,2,4,4,0,0,0-4,4A1,1,0,0,1,46,43Z" fill="#019fff"/>
          </g>
          <g id="Group_26" data-name="Group 26">
            <path id="Path_62" data-name="Path 62" d="M54,43a1,1,0,0,1,0-2,4,4,0,0,0,4-4,1,1,0,0,1,2,0A6.006,6.006,0,0,1,54,43Z" fill="#019fff"/>
          </g>
          <g id="Group_27" data-name="Group 27">
            <path id="Path_63" data-name="Path 63" d="M59,38H51a1,1,0,1,1,0-2h8a1,1,0,0,1,0,2Z" fill="#019fff"/>
          </g>
          <g id="Group_28" data-name="Group 28">
            <path id="Path_64" data-name="Path 64" d="M54,43H46a1,1,0,1,1,0-2h8a1,1,0,0,1,0,2Z" fill="#019fff"/>
          </g>
        </g>
        <g id="Group_34" data-name="Group 34">
          <g id="Group_30" data-name="Group 30">
            <path id="Path_65" data-name="Path 65" d="M19,43a1,1,0,0,1-1-1,4,4,0,0,0-4-4,1,1,0,0,1,0-2,6.006,6.006,0,0,1,6,6A1,1,0,0,1,19,43Z" fill="#019fff"/>
          </g>
          <g id="Group_31" data-name="Group 31">
            <path id="Path_66" data-name="Path 66" d="M10,43a6.006,6.006,0,0,1-6-6,1,1,0,0,1,2,0,4,4,0,0,0,4,4,1,1,0,1,1,0,2Z" fill="#019fff"/>
          </g>
          <g id="Group_32" data-name="Group 32">
            <path id="Path_67" data-name="Path 67" d="M14,38H5a1,1,0,0,1,0-2h9a1,1,0,1,1,0,2Z" fill="#019fff"/>
          </g>
          <g id="Group_33" data-name="Group 33">
            <path id="Path_68" data-name="Path 68" d="M19,43H10a1,1,0,0,1,0-2h9a1,1,0,0,1,0,2Z" fill="#019fff"/>
          </g>
        </g>
        <g id="Group_35" data-name="Group 35">
          <path id="Path_69" data-name="Path 69" d="M28,44.006a7.009,7.009,0,0,1-7-7,1,1,0,0,1,2,0,5.006,5.006,0,0,0,5,5,1,1,0,1,1,0,2Z" fill="#019fff"/>
        </g>
        <g id="Group_36" data-name="Group 36">
          <path id="Path_70" data-name="Path 70" d="M36,44.006a1,1,0,1,1,0-2,5.006,5.006,0,0,0,5-5,1,1,0,0,1,2,0A7.009,7.009,0,0,1,36,44.006Z" fill="#019fff"/>
        </g>
        <g id="Group_37" data-name="Group 37">
          <path id="Path_71" data-name="Path 71" d="M36,44.008H28.006a1,1,0,0,1,0-2H36a1,1,0,0,1,0,2Z" fill="#019fff"/>
        </g>
        <g id="Group_38" data-name="Group 38">
          <path id="Path_72" data-name="Path 72" d="M42,38.006H22a1,1,0,1,1,0-2H42a1,1,0,0,1,0,2Z" fill="#019fff"/>
        </g>
        <g id="Group_39" data-name="Group 39">
          <path id="Path_73" data-name="Path 73" d="M41.2,41.006H22.8a1,1,0,0,1,0-2H41.2a1,1,0,0,1,0,2Z" fill="#019fff"/>
        </g>
      </g>
      <g id="Group_41" data-name="Group 41">
        <path id="Path_74" data-name="Path 74" d="M13.873,26.008a1,1,0,0,1-.292-1.956l13.125-4.009a1,1,0,1,1,.584,1.912L14.165,25.964a.99.99,0,0,1-.292.044Z" fill="#019fff"/>
      </g>
      <g id="Group_42" data-name="Group 42">
        <path id="Path_75" data-name="Path 75" d="M30,22H18a1,1,0,0,1,0-2H30a1,1,0,0,1,0,2Z" fill="#019fff"/>
      </g>
      <g id="Group_43" data-name="Group 43">
        <path id="Path_76" data-name="Path 76" d="M33.893,26.008a1,1,0,0,1-.292-1.956l13.125-4.009a1,1,0,1,1,.584,1.912L34.185,25.964a1,1,0,0,1-.292.044Z" fill="#019fff"/>
      </g>
      <g id="Group_44" data-name="Group 44">
        <path id="Path_77" data-name="Path 77" d="M50.015,22h-12a1,1,0,0,1,0-2h12a1,1,0,0,1,0,2Z" fill="#019fff"/>
      </g>
      <g id="Group_51" data-name="Group 51">
        <g id="Group_45" data-name="Group 45">
          <path id="Path_78" data-name="Path 78" d="M6,25.993a1.042,1.042,0,0,1-.269-.036,1,1,0,0,1-.7-1.231l5-18a1,1,0,0,1,1.927.535l-5,18A1,1,0,0,1,6,25.993Z" fill="#019fff"/>
        </g>
        <g id="Group_46" data-name="Group 46">
          <path id="Path_79" data-name="Path 79" d="M9.005,25.993a1.042,1.042,0,0,1-.269-.036,1,1,0,0,1-.7-1.231L12.2,9.733a1,1,0,0,1,1.927.535L9.968,25.261a1,1,0,0,1-.963.732Z" fill="#019fff"/>
        </g>
        <g id="Group_47" data-name="Group 47">
          <path id="Path_80" data-name="Path 80" d="M58,25.993a1,1,0,0,1-.963-.732l-5-18a1,1,0,1,1,1.927-.535l5,18a1,1,0,0,1-.7,1.231,1.029,1.029,0,0,1-.268.036Z" fill="#019fff"/>
        </g>
        <g id="Group_48" data-name="Group 48">
          <path id="Path_81" data-name="Path 81" d="M55,25.993a1,1,0,0,1-.963-.732L49.869,10.269A1,1,0,1,1,51.8,9.734l4.165,14.992a1,1,0,0,1-.7,1.231,1.029,1.029,0,0,1-.268.036Z" fill="#019fff"/>
        </g>
        <g id="Group_49" data-name="Group 49">
          <path id="Path_82" data-name="Path 82" d="M53,8H11a1,1,0,0,1,0-2H53a1,1,0,0,1,0,2Z" fill="#019fff"/>
        </g>
        <g id="Group_50" data-name="Group 50">
          <path id="Path_83" data-name="Path 83" d="M50.834,11H13.166a1,1,0,1,1,0-2H50.834a1,1,0,0,1,0,2Z" fill="#019fff"/>
        </g>
      </g>
    </g>
  </g>
</svg>
