<?xml version="1.0" encoding="iso-8859-1"?>
<!-- Generator: Adobe Illustrator 19.0.0, SVG Export Plug-In . SVG Version: 6.00 Build 0)  -->
<svg version="1.1" id="Capa_1" xmlns="http://www.w3.org/2000/svg" xmlns:xlink="http://www.w3.org/1999/xlink" x="0px" y="0px"
	 viewBox="0 0 512.011 512.011" style="enable-background:new 0 0 512.011 512.011;" xml:space="preserve">
<g transform="translate(0 -1)">
	<g transform="translate(1 2)">
		<ellipse style="fill:#A4C2F7;" cx="272.584" cy="255.011" rx="230.912" ry="247.467"/>
		<ellipse style="fill:#FFFFFF;" cx="238.451" cy="255.011" rx="230.912" ry="247.467"/>
		<ellipse style="fill:#E3E7F2;" cx="255.006" cy="255.011" rx="221.867" ry="247.467"/>
		<g>
			<path style="fill:#A4C2F7;" d="M402.803,56.526l-1.707,2.219l-60.928,21.333c-9.452,7.728-18.348,16.112-26.624,25.088
				c-3.072,5.291-23.296,13.312-23.296,13.312s-61.525,4.267-68.437,9.045c-6.827,4.779-6.229,32.683-6.229,32.683l23.381,45.056
				c1.734,3.159,5.665,4.369,8.875,2.731c3.499-1.792,7.168-4.011,10.837-5.888c4.431-3.062,9.865-4.314,15.189-3.499
				c3.589,1.022,6.357,3.887,7.253,7.509c0.125,4.191-1.665,8.212-4.864,10.923c-6.059,6.571-11.947,13.227-17.92,20.053
				c-6.144,7.083-12.203,14.08-18.347,21.163c-1.195,1.451-2.475,2.816-3.669,4.267c-4.656,6.559-6.639,14.645-5.547,22.613
				l0.853,5.803c1.141,8.102-0.976,16.326-5.888,22.869l-16.896,22.869c-1.126,1.46-2.098,3.033-2.901,4.693l-18.432,37.291
				c-1.263,2.671-3.958,4.368-6.912,4.352h-17.237c-2.564-0.014-4.905-1.465-6.059-3.755c-1.433-3.053-0.858-6.672,1.451-9.131
				l1.707-1.621c1.951-1.936,2.731-4.761,2.048-7.424l-16.299-65.963c-0.085-0.256-0.085-0.512-0.171-0.768l-11.691-31.488
				c-0.851-2.264-1.285-4.664-1.28-7.083v-1.536c0.033-7.646-4.264-14.653-11.093-18.091l-1.024-0.512
				c-3.442-1.771-7.332-2.484-11.179-2.048l-22.955,2.56c-6.57,0.765-13.084-1.834-17.323-6.912l-14.507-17.152
				c-3.077-3.656-4.769-8.278-4.779-13.056v-15.104c-0.036-5.333,2.052-10.46,5.803-14.251l18.603-18.859
				c1.134-1.166,2.136-2.454,2.987-3.84l6.059-10.24c3.551-6.05,10.051-9.756,17.067-9.728h24.661
				c5.657-0.045,11.05,2.387,14.763,6.656c3.787,4.156,9.14,6.539,14.763,6.571h9.131l7.851-26.027
				c-5.829-5.328-10.656-11.657-14.251-18.688c-3.755-9.045-24.917-17.579-30.208-18.091c-8.654-4.495-16.615-10.215-23.637-16.981
				l-0.597-0.768c87.757-68.295,210.305-69.622,299.52-3.243L402.803,56.526z"/>
			<path style="fill:#A4C2F7;" d="M502.472,255.011c0.059,95.664-55.08,182.776-141.568,223.659l-3.755-7.936l-28.843-61.184
				c-0.439-1.055-0.671-2.185-0.683-3.328V390.35c0.021-3.33-2.067-6.309-5.205-7.424l-14.848-5.205
				c-1.194-0.436-2.273-1.136-3.157-2.048l-4.693-5.035c-1.795-1.97-2.462-4.718-1.771-7.291c0.691-2.573,2.645-4.618,5.185-5.424
				l35.072-10.581c2.498-0.714,5.186-0.208,7.253,1.365l23.637,18.859c1.415,1.102,3.156,1.702,4.949,1.707h13.995
				c2.655,0.049,5.152-1.26,6.622-3.473c1.469-2.212,1.707-5.022,0.632-7.45l-20.395-43.264c-0.933-1.966-0.982-4.238-0.135-6.243
				s2.511-3.552,4.572-4.253l6.656-2.304c3.94-1.346,6.095-5.58,4.864-9.557l-6.997-22.528c-3.394-10.723-1.896-22.396,4.096-31.915
				l2.816-4.437c1.459-2.32,4.001-3.736,6.741-3.755h9.557c2.062,0.03,4.05-0.765,5.523-2.206c1.474-1.442,2.311-3.412,2.327-5.474
				v-8.704c0.011-3.947,2.988-7.255,6.912-7.68l44.032-5.803c4.755-0.724,9.616,0.146,13.824,2.475l3.413,1.792
				c3.032,1.617,6.382,2.549,9.813,2.731l4.949,0.171C500.959,223.078,502.503,239.027,502.472,255.011L502.472,255.011z"/>
		</g>
		<path style="fill:#7FACFA;" d="M502.472,255.011c0.059,95.664-55.08,182.776-141.568,223.659l-3.755-7.936
			c75.132-45.787,120.616-127.742,119.723-215.723c0.005-18.476-1.969-36.899-5.888-54.955c3.035,0.358,5.983,1.254,8.704,2.645
			l3.413,1.792c3.032,1.617,6.382,2.549,9.813,2.731l4.949,0.171C500.959,223.078,502.503,239.027,502.472,255.011L502.472,255.011z
			"/>
		<path style="fill:#A4C2F7;" d="M502.472,171.149c0,35.304-55.457,126.966-75.788,156.868c-1.694,2.38-4.435,3.794-7.357,3.794
			s-5.663-1.414-7.357-3.794c-20.331-29.902-75.788-121.564-75.788-156.868c0-43.228,37.225-78.271,83.145-78.271
			S502.472,127.921,502.472,171.149z"/>
		<path style="fill:#E3E7F2;" d="M476.872,171.149c0,35.304-45.533,126.966-62.226,156.868c-1.118,2.32-3.465,3.794-6.04,3.794
			c-2.575,0-4.922-1.475-6.04-3.794c-16.693-29.902-62.226-121.564-62.226-156.868c0-43.228,30.564-78.271,68.267-78.271
			S476.872,127.921,476.872,171.149z"/>
		<circle style="fill:#7FACFA;" cx="419.358" cy="172.016" r="44.348"/>
	</g>
	<g>
		<path style="fill:#428DFF;" d="M181.468,393.545h-17.325c-5.754-0.011-11.018-3.241-13.633-8.367
			c-3.057-6.26-1.953-13.754,2.779-18.867l1.625-1.558l-16.292-65.575l-0.087-0.4l-11.567-30.925
			c-1.211-3.221-1.828-6.634-1.821-10.075v-1.533c0.04-4.417-2.434-8.473-6.379-10.458l-0.837-0.383
			c-2.041-1.125-4.381-1.588-6.696-1.325l-23.125,2.558c-9.408,1.066-18.728-2.632-24.846-9.858l-14.592-17.167
			c-4.382-5.2-6.793-11.775-6.812-18.575v-15.109c-0.051-7.598,2.938-14.901,8.3-20.284l18.767-18.842
			c0.677-0.711,1.275-1.494,1.783-2.333l5.967-10.083c5.151-8.62,14.451-13.901,24.492-13.908h24.833
			c8.129-0.015,15.872,3.467,21.254,9.558c2.19,2.331,5.243,3.658,8.442,3.667h2.808l4.588-15.033
			c-5.19-5.198-9.44-11.257-12.558-17.908c-6.484-6.298-14.546-10.731-23.338-12.833c-3.612-0.4-9.008-2.217-28.467-18.958
			c-2.326-1.977-3.419-5.045-2.866-8.047c0.553-3.002,2.666-5.48,5.543-6.499c2.877-1.019,6.079-0.423,8.398,1.562
			c6.004,5.764,12.652,10.817,19.813,15.058c6.95,1.142,31.133,9.817,36.688,23.2c3.099,5.896,7.225,11.193,12.183,15.642
			c2.448,2.221,3.397,5.654,2.437,8.817l-7.938,26.025c-1.095,3.59-4.409,6.043-8.162,6.042h-9.129
			c-8.035-0.026-15.695-3.407-21.13-9.325c-2.143-2.497-5.276-3.923-8.566-3.9h-24.833c-4.022-0.039-7.759,2.071-9.804,5.533
			l-6.067,10.25c-1.217,1.998-2.657,3.852-4.292,5.525l-18.762,18.842c-2.159,2.193-3.353,5.156-3.317,8.233v15.108
			c0.015,2.773,1.001,5.453,2.787,7.575l14.55,17.108c2.44,2.892,6.161,4.377,9.921,3.958l23.175-2.567
			c5.516-0.62,11.092,0.407,16.025,2.95l0.75,0.333c9.871,4.823,16.117,14.864,16.079,25.85v1.533
			c-0.007,1.371,0.233,2.731,0.708,4.017l11.804,31.567c0.222,0.647,0.395,1.31,0.517,1.983h-0.004l16.333,65.675
			c1.386,5.539-0.221,11.4-4.237,15.458h14.133l17.871-36.9c1.042-2.157,2.307-4.199,3.775-6.092l16.9-22.767
			c3.583-4.751,5.125-10.734,4.284-16.625l-0.842-5.717c-1.446-10.184,1.122-20.531,7.162-28.858
			c0.983-1.225,1.658-1.992,2.338-2.767l20.229-23.25c6.046-6.917,12.071-13.617,18.179-20.25c1.214-1.068,2.167-2.399,2.788-3.892
			c-0.453-0.25-0.931-0.454-1.425-0.608c-3.037,0.163-5.978,1.12-8.529,2.775c-1.992,1.017-3.646,1.942-5.292,2.859
			c-2.029,1.125-4.046,2.242-6.038,3.242c-7.328,3.728-16.293,0.928-20.196-6.308l-23.612-45.167
			c-0.61-1.164-0.942-2.453-0.971-3.767c-0.313-14.825,1.163-33.775,9.996-39.883c7.2-4.975,42.65-8.408,71.7-10.442
			c6.522-2.385,12.694-5.636,18.35-9.667c8.594-9.785,18.056-18.772,28.271-26.85c0.794-0.667,1.704-1.184,2.683-1.525
			l61.271-21.333c4.451-1.549,9.314,0.804,10.863,5.254s-0.804,9.314-5.254,10.863l-59.779,20.817
			c-8.398,6.79-16.325,14.143-23.725,22.008c-3.796,6.342-17.113,12.642-27.608,16.783c-0.816,0.322-1.675,0.519-2.55,0.583
			c-21.557,1.033-43.017,3.548-64.229,7.525c-2.26,7.634-3.256,15.586-2.946,23.542l21.687,41.482
			c1.254-0.658,2.517-1.367,3.792-2.075c1.817-1.017,3.65-2.033,5.479-2.967c6.403-4.146,14.18-5.604,21.65-4.058
			c6.512,1.892,11.505,7.137,13.075,13.734c1.066,7.016-1.563,14.086-6.954,18.7c-5.954,6.458-11.889,13.069-17.804,19.833
			l-18.408,21.133c-0.517,0.633-1.192,1.4-1.871,2.175l-1.662,1.933c-3.238,4.669-4.583,10.394-3.763,16.017l0.842,5.725
			c1.487,10.359-1.219,20.884-7.517,29.242l-16.941,22.825c-0.791,1.016-1.477,2.111-2.046,3.267l-18.583,37.425
			C193.36,390.027,187.682,393.554,181.468,393.545z M155.36,364.32l-0.004,0.009L155.36,364.32z"/>
		<path style="fill:#428DFF;" d="M363.018,489.203c-3.304,0.002-6.312-1.904-7.721-4.892l-32.596-69.117
			c-1.02-2.182-1.533-4.567-1.5-6.975v-15.867l-14.433-4.583c-2.519-0.884-4.777-2.385-6.567-4.367l-4.646-4.892
			c-3.804-4.113-5.242-9.885-3.814-15.302c1.429-5.417,5.526-9.729,10.864-11.431l35.25-10.608c5.072-1.514,10.562-0.5,14.758,2.725
			l23.9,18.992l12.504-0.133l-19.733-42.042c-1.987-4.06-2.145-8.775-0.433-12.958c1.787-4.341,5.356-7.702,9.796-9.225l6.667-2.308
			c0.506-2.15,1.86-4.004,3.753-5.141c1.893-1.138,4.165-1.462,6.301-0.9c4.569,1.268,7.271,5.973,6.062,10.558
			c-1.309,5.347-5.206,9.685-10.383,11.558l-5.904,2.042l19.9,42.392c2.357,4.996,1.983,10.853-0.992,15.508
			c-3.024,4.744-8.274,7.602-13.9,7.567h-13.996c-3.75-0.005-7.388-1.277-10.325-3.608l-23.654-18.8l-33.342,10.317l3.875,4.083
			l14.558,5.083c6.594,2.282,11.012,8.498,11,15.475v15.867l32.463,68.808c1.247,2.643,1.055,5.739-0.508,8.208
			C368.658,487.704,365.94,489.201,363.018,489.203L363.018,489.203z M384.643,313.27l0.012,0.033L384.643,313.27z"/>
		<path style="fill:#428DFF;" d="M499.893,217.928c-0.096,0-0.192,0-0.292-0.009l-4.95-0.167c-1.145-0.054-2.279-0.253-3.375-0.592
			c-4.151-1.497-6.475-5.911-5.361-10.18c1.114-4.269,5.3-6.984,9.653-6.261l4.608,0.15c4.651,0.158,8.317,4.015,8.24,8.668
			C508.339,214.191,504.547,217.924,499.893,217.928L499.893,217.928z"/>
		<path id="SVGCleanerId_0" style="fill:#428DFF;" d="M420.326,226.895c-21.388,0-40.67-12.884-48.854-32.644
			c-8.185-19.76-3.66-42.505,11.465-57.628s37.869-19.646,57.629-11.46s32.642,27.469,32.64,48.857
			C473.173,203.21,449.517,226.865,420.326,226.895z M420.326,138.203c-19.778,0-35.812,16.033-35.813,35.811
			c-0.001,19.778,16.032,35.812,35.81,35.814c19.778,0.002,35.813-16.03,35.815-35.808
			C456.119,154.248,440.098,138.225,420.326,138.203L420.326,138.203z"/>
		<path id="SVGCleanerId_1" style="fill:#428DFF;" d="M420.326,342.345c-5.755,0.036-11.153-2.783-14.413-7.525
			c-16.325-24.017-77.266-121.817-77.266-161.667c0-47.867,41.129-86.808,91.679-86.808c50.55,0,91.679,38.942,91.679,86.808
			c0,39.85-60.942,137.65-77.262,161.667C431.481,339.562,426.082,342.38,420.326,342.345z M420.326,103.411
			c-41.142,0-74.613,31.283-74.613,69.742c0,30.208,48.4,113.95,74.312,152.067c26.512-38.117,74.913-121.858,74.913-152.067
			C494.939,134.695,461.468,103.411,420.326,103.411z"/>
		<g>
			<path id="SVGCleanerId_0_1_" style="fill:#428DFF;" d="M420.326,226.895c-21.388,0-40.67-12.884-48.854-32.644
				c-8.185-19.76-3.66-42.505,11.465-57.628s37.869-19.646,57.629-11.46s32.642,27.469,32.64,48.857
				C473.173,203.21,449.517,226.865,420.326,226.895z M420.326,138.203c-19.778,0-35.812,16.033-35.813,35.811
				c-0.001,19.778,16.032,35.812,35.81,35.814c19.778,0.002,35.813-16.03,35.815-35.808
				C456.119,154.248,440.098,138.225,420.326,138.203L420.326,138.203z"/>
		</g>
		<g>
			<path id="SVGCleanerId_1_1_" style="fill:#428DFF;" d="M420.326,342.345c-5.755,0.036-11.153-2.783-14.413-7.525
				c-16.325-24.017-77.266-121.817-77.266-161.667c0-47.867,41.129-86.808,91.679-86.808c50.55,0,91.679,38.942,91.679,86.808
				c0,39.85-60.942,137.65-77.262,161.667C431.481,339.562,426.082,342.38,420.326,342.345z M420.326,103.411
				c-41.142,0-74.613,31.283-74.613,69.742c0,30.208,48.4,113.95,74.312,152.067c26.512-38.117,74.913-121.858,74.913-152.067
				C494.939,134.695,461.468,103.411,420.326,103.411z"/>
		</g>
		<path style="fill:#428DFF;" d="M10.939,231.411c-0.393,0.001-0.786-0.027-1.175-0.083c-2.242-0.306-4.27-1.491-5.637-3.293
			s-1.963-4.074-1.654-6.316C16.442,121.31,88.351,38.605,185.845,10.816s202.201,4.574,267.011,82.528
			c1.95,2.343,2.502,5.549,1.448,8.409c-1.054,2.86-3.554,4.941-6.558,5.458c-3.004,0.517-6.056-0.607-8.006-2.951
			C379.255,31.506,281.536,1.296,190.545,27.223S32.433,130.328,19.381,224.036C18.801,228.257,15.199,231.404,10.939,231.411z"/>
		<path style="fill:#428DFF;" d="M256.006,513.011C128.381,512.693,20.371,418.667,2.472,292.303
			c-0.608-4.653,2.654-8.923,7.303-9.56s8.94,2.599,9.605,7.243c17.321,124.343,127.921,214.071,253.164,205.386
			c125.243-8.684,222.401-112.818,222.395-238.361c0.027-18.071-2.017-36.086-6.092-53.692c-1.069-4.587,1.782-9.173,6.368-10.244
			c4.586-1.072,9.174,1.775,10.249,6.361c4.374,18.879,6.569,38.196,6.542,57.575C511.845,398.33,397.324,512.851,256.006,513.011z"
			/>
		<circle style="fill:#428DFF;" cx="8.539" cy="257.011" r="8.533"/>
	</g>
</g>
<g>
</g>
<g>
</g>
<g>
</g>
<g>
</g>
<g>
</g>
<g>
</g>
<g>
</g>
<g>
</g>
<g>
</g>
<g>
</g>
<g>
</g>
<g>
</g>
<g>
</g>
<g>
</g>
<g>
</g>
</svg>
