<svg height="512pt" viewBox="-3 0 512 512" width="512pt" xmlns="http://www.w3.org/2000/svg"><path d="m100.683594 307.199219 110.933594 153.601562 110.933593-128-15.53125-37.804687c-22.75 7.433594-46.105469 12.855468-69.800781 16.214844h-34.132812c-23.167969-3.253907-46.007813-8.507813-68.269532-15.710938zm0 0" fill="#e6e7e8"/><path d="m359.332031 306.773438-14.507812 180.992187c-8.789063 2.390625-17.835938 4.4375-26.710938 6.058594-32.324219 5.957031-65.09375 9.179687-97.960937 9.640625 0 0-208.46875 0-208.46875-86.867188 0-28.757812 5.800781-60.585937 26.453125-82.519531 22.269531-23.722656 63.402343-37.460937 95.144531-39.082031 0 0 0 39.679687 57.773438 96 8.359374 8.191406 18.058593 16.726562 29.097656 25.601562 11.007812-8.875 20.707031-17.410156 29.097656-25.601562 4.523438-4.4375 8.703125-8.703125 12.542969-12.882813 16.765625-17.332031 30.140625-37.652343 39.425781-59.90625 3.230469-7.351562 5.191406-15.199219 5.800781-23.210937 11.519531.699218 22.933594 2.613281 34.050781 5.71875 6.203126 1.644531 12.300782 3.667968 18.261719 6.058594zm0 0" fill="#a4c2f7"/><path d="m359.332031 306.773438-14.507812 180.992187c-8.789063 2.390625-17.835938 4.4375-26.710938 6.058594-9.417969-4.3125-18.089843-10.105469-25.683593-17.152344-21.242188-19.394531-33.324219-46.84375-33.28125-75.605469-.039063-7.730468.847656-15.4375 2.644531-22.953125 16.765625-17.332031 30.140625-37.652343 39.425781-59.90625 11.882812-8.601562 25.472656-14.566406 39.851562-17.492187 6.203126 1.644531 12.300782 3.667968 18.261719 6.058594zm0 0" fill="#7fabfa"/><path d="m313.589844 117.761719c5.152344-5.183594 12.53125-7.484375 19.714844-6.144531 10.066406 3.328124 5.035156 33.621093 5.035156 33.621093-4.730469 15.144531-16.496094 27.066407-31.574219 32h-173.226563c-15.089843-4.949219-26.875-16.859375-31.660156-32 0 0-4.949218-30.292969 5.207032-33.621093 7.15625-1.34375 14.511718.960937 19.625 6.144531zm0 0" fill="#a4c2f7"/><path d="m272.375 250.964844c1.417969 20.398437 15.15625 37.855468 34.644531 44.03125-22.75 7.433594-46.105469 12.855468-69.800781 16.214844h-34.132812c-23.695313-3.359376-47.054688-8.78125-69.804688-16.214844 19.492188-6.175782 33.226562-23.632813 34.644531-44.03125zm0 0" fill="#a4c2f7"/><path d="m249.25 390.996094c-8.363281 8.191406-18.0625 16.726562-29.097656 25.601562-11.007813-8.875-20.707032-17.410156-29.097656-25.601562l20.5625-49.664063h17.066406zm0 0" fill="#e3e7f2"/><path d="m306.679688 171.09375c0 22.699219 6.65625 42.238281-19.96875 65.023438-26.625 22.785156-26.625 45.484374-53.246094 45.484374h-26.625c-.429688.011719-.859375-.015624-1.28125-.085937-25.34375-.683594-25.769532-23.039063-51.96875-45.398437-26.621094-22.785157-19.964844-42.324219-19.964844-65.023438s-9.984375-29.269531-6.65625-94.292969c2.730469-52.652343 57.683594-64.769531 78.589844-67.5 4.949218-.683593 7.9375-.765625 7.9375-.765625h13.3125s83.199218 3.242188 86.527344 68.265625c3.328124 65.023438-6.65625 71.507813-6.65625 94.292969zm0 0" fill="#a4c2f7"/><path d="m277.410156 171.09375c0 22.699219 6.65625 42.238281-19.96875 65.023438-26.195312 22.273437-26.625 44.714843-51.882812 45.398437-25.34375-.683594-25.769532-23.039063-51.96875-45.398437-26.621094-22.785157-19.964844-42.324219-19.964844-65.023438s-9.984375-29.269531-6.65625-94.292969c2.730469-52.652343 57.683594-64.769531 78.589844-67.5 20.90625 2.730469 75.777344 14.933594 78.507812 67.5 3.328125 65.023438-6.65625 71.507813-6.65625 94.292969zm0 0" fill="#d4e1f4"/><path d="m207.351562 307.199219h25.601563c2.355469 0 4.265625 1.910156 4.265625 4.265625v21.335937c0 9.425781-7.640625 17.066407-17.066406 17.066407-9.425782 0-17.066406-7.640626-17.066406-17.066407v-21.335937c0-2.355469 1.910156-4.265625 4.265624-4.265625zm0 0" fill="#e3e7f2"/><path d="m495.863281 379.734375c-11.285156-53.355469-62.359375-88.535156-116.230469-80.0625-53.871093 8.476563-91.679687 57.640625-86.039062 111.878906 5.640625 54.242188 52.757812 94.574219 107.21875 91.78125s97.207031-47.730469 97.269531-102.265625c.007813-7.167968-.734375-14.320312-2.21875-21.332031zm0 0" fill="#a4c2f7"/><path d="m470.535156 379.734375c-8.582031-46.335937-44.566406-81.066406-87.652344-81.066406-49.492187 0-89.601562 45.824219-89.601562 102.398437-.34375 28.003906 10.082031 55.070313 29.125 75.605469 15.601562 16.886719 37.484375 26.585937 60.476562 26.792969 49.492188 0 89.597657-45.820313 89.597657-102.398438.003906-7.15625-.648438-14.296875-1.945313-21.332031zm0 0" fill="#a4c2f7"/><g fill="#fff"><path d="m161.398438 295.808594.855468.265625zm0 0"/><path d="m166 297.242188 1.707031.519531zm0 0"/><path d="m193.730469 304.769531c1.1875.28125 2.375.5625 3.59375.851563-1.21875-.289063-2.40625-.570313-3.59375-.851563zm0 0"/><path d="m187.613281 303.257812c1.390625.359376 2.808594.707032 4.265625 1.066407-1.457031-.359375-2.875-.707031-4.265625-1.066407zm0 0"/><path d="m199.507812 306.097656 3.414063.753906zm0 0"/><path d="m181.742188 301.738281c1.597656.425781 3.25.855469 4.949218 1.289063-1.699218-.433594-3.351562-.863282-4.949218-1.289063zm0 0"/><path d="m169.242188 298.214844 2.105468.613281zm0 0"/><path d="m180.582031 301.421875-3.414062-.9375zm0 0"/><path d="m11.683594 416.597656c0 86.867188 208.46875 86.867188 208.46875 86.867188s4.753906 0 12.800781-.296875c-45.253906-1.671875-195.671875-12.765625-195.671875-86.570313 0-28.757812 5.804688-60.585937 26.453125-82.519531 18.160156-19.34375 48.804687-31.902344 76.734375-36.820313h-.070312.070312c6.085938-1.125 12.234375-1.878906 18.414062-2.261718 19.484376-6.175782 33.21875-23.625 34.644532-44.015625-4.300782-5.390625-9.101563-10.367188-14.335938-14.863281-24.199218-20.710938-20.914062-38.75-20.113281-58.878907-15.054687-4.960937-26.800781-16.859375-31.574219-31.976562 0 0-4.949218-30.292969 5.207032-33.621094 7.15625-1.339844 14.511718.960937 19.625 6.144531-.644532-13.65625-.566407-27.335937.230468-40.984375 2.730469-52.652343 57.6875-64.769531 78.59375-67.5.671875-.09375 1.21875-.152343 1.816406-.222656-3.839843-.449219-6.167968-.542969-6.167968-.542969h-13.3125s-2.988282.082032-7.9375.765625c-20.90625 2.730469-75.859375 14.847657-78.589844 67.5-.800781 13.640625-.882812 27.3125-.238281 40.960938-5.117188-5.183594-12.472657-7.488281-19.628907-6.144531-10.15625 3.328124-5.203124 33.621093-5.203124 33.621093 4.769531 15.113281 16.519531 27.011719 31.570312 31.972657-.800781 20.15625-4.085938 38.195312 20.113281 58.878906 5.234375 4.496094 10.035157 9.472656 14.335938 14.867187-1.425781 20.390625-15.160157 37.839844-34.644531 44.015625l1.535156.503906-1.484375.503907c0-.597657-.050781-1.007813-.050781-1.007813-31.742188 1.621094-72.875 15.359375-95.148438 39.082032-20.640625 21.957031-26.441406 53.785156-26.441406 82.542968zm124.933594-120.492187-.851563-.261719zm2.5.777343-1.398438-.433593zm0 0"/><path d="m172.960938 299.308594 2.5625.722656zm0 0"/><path d="m163.320312 296.414062 1.398438.433594zm0 0"/><path d="m211.097656 308.488281 3.609375.648438zm0 0"/><path d="m388.652344 503.132812c2.335937.15625 4.65625.332032 7.03125.332032 2.234375 0 4.417968-.195313 6.621094-.332032-13.925782-1.128906-27.328126-5.832031-38.902344-13.652343-6.238282 1.542969-12.519532 2.960937-18.773438 4.121093 11.726563 6.429688 24.878906 9.820313 38.253906 9.863282 1.945313 0 3.855469-.195313 5.769532-.332032zm0 0"/><path d="m160.417969 295.5-1.535157-.503906s0 .410156.050782 1.007812zm0 0"/><path d="m222.847656 310.453125c1.953125.28125 3.910156.535156 5.835938.757813-1.960938-.222657-3.882813-.476563-5.835938-.757813zm0 0"/><path d="m217.011719 309.539062c1.320312.222657 2.644531.425782 3.957031.621094-1.3125-.195312-2.636719-.398437-3.957031-.621094zm0 0"/><path d="m365.976562 300.542969.691407.171875c4.070312 1.074218 8.117187 2.398437 12.136719 3.8125 7.707031-3.09375 15.851562-4.964844 24.140624-5.546875-2.40625-.160157-4.8125-.3125-7.261718-.3125-2.160156 0-4.269532.1875-6.382813.324219-2.152343-.171876-4.257812-.324219-6.417969-.324219-5.6875.015625-11.355468.644531-16.90625 1.875zm0 0"/><path d="m208.800781 308.054688-3.539062-.710938zm0 0"/><path d="m17.066406 416.605469c.78125 16.085937 9.417969 30.757812 23.101563 39.253906 14.605469 9.753906 30.695312 17.078125 47.640625 21.691406 42.132812 11.324219 85.550781 17.167969 129.175781 17.382813v17.066406c-45.277344-.203125-90.339844-6.28125-134.058594-18.082031-18.792969-5.152344-36.621093-13.335938-52.777343-24.234375-8.484376-5.992188-15.726563-13.570313-21.332032-22.316406-5.710937-9.246094-8.7617185-19.890626-8.816406-30.761719zm0 0"/></g><path d="m395.683594 290.132812c-13.613282.023438-27.105469 2.566407-39.792969 7.5-16.078125-6.074218-32.953125-9.785156-50.097656-11.015624-14.871094-4.769532-25.585938-17.773438-27.425781-33.28125 3.292968-3.859376 6.878906-7.464844 10.726562-10.777344 24.992188-21.332032 24.277344-41.8125 23.355469-59.929688 15.207031-6.792968 26.613281-19.980468 31.144531-36.007812 1.871094-11.273438 4.574219-38.042969-10.726562-43.113282-4.371094-1.433593-9.074219-1.523437-13.5-.261718 0-7.757813-.144532-16.605469-.664063-26.898438-2.953125-57.574218-63.257813-75.109375-95.0625-76.347656h-13.652344c-31.472656 1.230469-91.765625 18.773438-94.71875 76.355469-.53125 10.292969-.71875 19.132812-.667969 26.890625-4.375-1.253906-9.023437-1.164063-13.34375.253906-15.4375 5.0625-12.800781 31.832031-10.890624 43.519531 4.667968 15.859375 16.050781 28.878907 31.148437 35.621094-.921875 18.105469-1.628906 38.570313 23.355469 59.929687 3.851562 3.308594 7.4375 6.914063 10.726562 10.785157-1.847656 15.511719-12.574218 28.515625-27.453125 33.277343-32.101562 1.9375-74.828125 15.363282-99.429687 41.578126-19.046875 20.300781-28.714844 50.046874-28.714844 88.394531.0742188 13.375 4.65625 26.335937 13.003906 36.789062 1.375 1.96875 3.550782 3.234375 5.945313 3.449219 2.390625.214844 4.757812-.636719 6.464843-2.332031 3.074219-3.128907 3.523438-7.996094 1.066407-11.632813-6.027344-7.445312-9.339844-16.71875-9.386719-26.296875 0-33.871093 8.105469-59.683593 24.097656-76.714843 19.625-20.933594 54.457032-32.734376 81.59375-35.730469 3.148438 15.554687 15.003906 49.5625 58.609375 92.320312.050781.0625.117188.113281.167969.171875 9.589844 9.371094 19.640625 18.253906 30.125 26.617188.394531.265625.808594.496094 1.246094.691406.273437.144531.511718.3125.792968.433594 1.03125.46875 2.152344.71875 3.285157.742187h.171875c1.050781-.039062 2.089844-.269531 3.0625-.683593.339844-.160157.671875-.34375.988281-.554688.398437-.179688.78125-.390625 1.144531-.628906 11.304688-9.113282 21.332032-17.921875 29.695313-26.128906 44.125-43.019532 55.988281-77.296876 59.179687-92.945313 7.847656.90625 15.617188 2.402344 23.246094 4.46875-28.714844 18.933594-46.988281 50.144531-49.441406 84.449219-2.457032 34.304687 11.183594 67.800781 36.902344 90.628906-34.574219 6.925781-69.710938 10.679688-104.96875 11.214844-43.625-.214844-87.042969-6.050782-129.175782-17.375-2.664062-.742188-5.238281-1.707032-7.867187-2.5-4.402344-1.371094-9.113281.925781-10.742188 5.238281-.800781 2.160156-.683593 4.546875.324219 6.617187 1.007812 2.066407 2.816406 3.632813 5.007812 4.332032 2.796876.855468 5.582032 1.878906 8.394532 2.671875 43.714844 11.800781 88.773437 17.878906 134.050781 18.082031 41.480469-.46875 82.78125-5.515625 123.152344-15.054688 40.359375 23.394532 91.039062 19.027344 126.800781-10.921874 35.761719-29.949219 48.953125-79.074219 33.007812-122.910157-15.945312-43.835937-57.617187-73.007812-104.261718-72.980469zm-147.304688 86.367188-12.988281-25.976562c4.613281-4.746094 7.195313-11.105469 7.203125-17.722657v-14.132812c16.953125-2.707031 33.714844-6.496094 50.183594-11.347657-4.144532 13.875-15.171875 38.457032-44.398438 69.179688zm-31.351562 29.011719c-6.765625-5.597657-13.003906-11.09375-18.652344-16.398438l15.546875-31.027343c2.046875.421874 4.15625.421874 6.203125 0l15.539062 31.085937c-5.613281 5.238281-11.835937 10.707031-18.636718 16.339844zm8.535156-72.710938c0 4.710938-3.820312 8.53125-8.535156 8.53125-4.710938 0-8.53125-3.820312-8.53125-8.53125v-17.066406h17.066406zm101.058594-213.28125c1.722656 7.863281 1.800781 15.996094.222656 23.890625-2.515625 7.773438-7.503906 14.507813-14.207031 19.175782.441406-3.464844 1.089843-6.828126 1.859375-10.660157 2.105468-9.789062 3.511718-19.71875 4.199218-29.710937 2.253907-1.777344 5.054688-2.730469 7.925782-2.695313zm-219.476563 24.34375c-1.636719-8.042969-1.550781-16.339843.246094-24.34375 2.859375-.050781 5.648437.890625 7.894531 2.660157.691406 9.992187 2.089844 19.921874 4.191406 29.714843.765626 3.820313 1.414063 7.210938 1.867188 10.675781-6.589844-4.578124-11.5625-11.128906-14.199219-18.707031zm31.453125 38.964844c.085938-1.640625.101563-3.339844.171875-5.003906.03125-.421875.03125-.847657 0-1.269531.058594-1.824219.179688-3.609376.179688-5.476563-.109375-7.59375-1.042969-15.15625-2.78125-22.546875-2.21875-10.269531-3.605469-20.699219-4.148438-31.1875v-.136719c-.609375-13.320312-.519531-26.664062.273438-39.972656 2.925781-56.378906 75.304687-60.046875 78.035156-60.167969h12.980469c3.070312.128906 75.46875 3.796875 78.34375 60.175782.792968 13.332031.882812 26.691406.273437 40.03125-.539062 10.507812-1.929687 20.949218-4.15625 31.230468-1.734375 7.394532-2.667969 14.953125-2.78125 22.546875 0 1.867188.121094 3.652344.1875 5.476563-.023437.425781-.007812.851562.042969 1.273437.070312 1.707031.078125 3.363281.164062 5 .902344 17.765625 1.550782 30.601563-17.367187 46.773438-5.652344 4.890625-10.828125 10.3125-15.453125 16.1875l-.207031.246093c-2.804688 3.507813-5.3125 6.886719-7.507813 9.925782-8.867187 12.175781-12.917968 17.132812-24.550781 17.132812h-26.613281c-11.632813 0-15.6875-4.957031-24.507813-17.167968-2.195312-3.03125-4.703125-6.410157-7.503906-9.90625l-.21875-.285157c-4.640625-5.847656-9.824219-11.242187-15.480469-16.109375-18.925781-16.171875-18.269531-29.003906-17.375-46.769531zm29.722656 87.148437c7.300782 12.597657 20.804688 20.292969 35.363282 20.15625h26.621094c14.554687.136719 28.058593-7.5625 35.355468-20.15625 3.296875 8.792969 8.761719 16.605469 15.886719 22.714844l-.476563.136719c-2.996093.8125-6.238281 1.707031-9.632812 2.511719l-1.332031.332031c-3.414063.851563-7.003907 1.707031-10.667969 2.484375l-1.339844.289062c-3.820312.851563-7.679687 1.585938-11.636718 2.269532l-.855469.160156c-2.449219.421875-4.863281.71875-7.296875 1.070312-2.328125-2.132812-5.375-3.3125-8.53125-3.3125h-25.601563c-3.15625 0-6.199219 1.179688-8.53125 3.3125-14.597656-2.210937-29.046875-5.296874-43.273437-9.242187 7.152344-6.105469 12.640625-13.925781 15.949218-22.726563zm-27.101562 37.351563c16.464844 4.847656 33.226562 8.636719 50.175781 11.339844v14.132812c.003907 6.617188 2.582031 12.972657 7.191407 17.722657l-12.976563 25.949218c-29.203125-30.746094-40.242187-55.320312-44.390625-69.144531zm254.464844 187.605469c-17.4375-.011719-34.523438-4.910156-49.316406-14.148438-.296876-.207031-.601563-.394531-.921876-.5625-29.4375-18.621094-46.121093-52.03125-43.324218-86.753906 2.800781-34.71875 24.621094-65.027344 56.664062-78.691406.425782-.128906.839844-.292969 1.234375-.496094 35.097657-14.464844 75.449219-6.367188 102.25 20.515625 26.796875 26.882813 34.769531 67.257813 20.195313 102.308594-14.574219 35.050781-48.824219 57.871093-86.78125 57.828125zm0 0" fill="#428dff"/><path d="m420.0625 368.152344c0 4.714844 3.820312 8.535156 8.53125 8.535156 4.714844 0 8.535156-3.820312 8.535156-8.535156-.03125-19.585938-13.75-36.492188-32.914062-40.550782v-3.335937c0-4.710937-3.820313-8.53125-8.53125-8.53125-4.714844 0-8.535156 3.820313-8.535156 8.53125v3.335937c-19.152344 4.050782-32.859376 20.957032-32.859376 40.535157s13.707032 36.484375 32.859376 40.53125v48.042969c-9.507813-3.542969-15.820313-12.609376-15.847657-22.757813 0-4.710937-3.820312-8.53125-8.53125-8.53125-4.714843 0-8.535156 3.820313-8.535156 8.53125.019531 19.601563 13.742187 36.515625 32.914063 40.578125v3.335938c0 4.710937 3.820312 8.53125 8.535156 8.53125 4.710937 0 8.53125-3.820313 8.53125-8.53125v-3.335938c19.15625-4.050781 32.859375-20.957031 32.859375-40.535156s-13.703125-36.484375-32.859375-40.53125v-48.042969c9.5 3.539063 15.8125 12.59375 15.847656 22.730469zm-48.761719 0c.027344-10.144532 6.339844-19.210938 15.847657-22.757813v45.515625c-9.503907-3.542968-15.816407-12.609375-15.847657-22.757812zm48.761719 65.828125c-.027344 10.144531-6.339844 19.214843-15.847656 22.757812v-45.515625c9.507812 3.546875 15.820312 12.613282 15.847656 22.757813zm0 0" fill="#428dff"/><path d="m48.554688 477.867188c2.136718-.742188 3.914062-2.265626 4.964843-4.265626.945313-2.035156 1.128907-4.339843.523438-6.496093-.710938-2.019531-2.078125-3.742188-3.882813-4.890625-1.898437-1.011719-4.109375-1.28125-6.195312-.75l-1.496094.53125c-.515625.222656-1.003906.507812-1.449219.851562-.464843.273438-.886719.613282-1.253906 1.007813-.390625.417969-.753906.859375-1.085937 1.320312-1.242188 1.933594-1.667969 4.277344-1.183594 6.519531.316406 1.121094.867187 2.15625 1.613281 3.046876 2.226563 2.855468 5.953125 4.089843 9.445313 3.125zm0 0" fill="#428dff"/></svg>